<svg width="270" height="270" viewBox="0 0 270 270" fill="none" xmlns="http://www.w3.org/2000/svg">
<g clip-path="url(#clip0_121_302)">
<path d="M25.5001 142.835C25.5001 138.508 29.0253 135 33.3738 135H61.6264C65.9749 135 69.5001 138.508 69.5001 142.835V178.784H33.3738C29.0252 178.784 25.5001 175.276 25.5001 170.949V142.835Z" fill="#3B7BF5"/>
<path d="M69.5001 178.784H113.5V214.734C113.5 219.061 109.975 222.569 105.626 222.569H77.3738C73.0252 222.569 69.5001 219.061 69.5001 214.734V178.784Z" fill="#3B7BF5"/>
<path d="M113.5 142.835C113.5 138.508 117.025 135 121.374 135H157.5V170.949C157.5 175.276 153.975 178.784 149.626 178.784H113.5V142.835Z" fill="#3B7BF5"/>
<path d="M157.5 99.0508C157.5 94.7236 161.025 91.2157 165.374 91.2157H201.5V127.165C201.5 131.492 197.975 135 193.626 135H157.5V99.0508Z" fill="#3B7BF5"/>
<path d="M201.5 55.2665C201.5 50.9393 205.025 47.4314 209.374 47.4314H237.626C241.975 47.4314 245.5 50.9393 245.5 55.2665V83.3806C245.5 87.7078 241.975 91.2157 237.626 91.2157H201.5V55.2665Z" fill="#3B7BF5"/>
<path fill-rule="evenodd" clip-rule="evenodd" d="M20 137.362C20 133.035 23.5252 129.527 27.8737 129.527H67.1263C71.4748 129.527 75 133.035 75 137.362V165.476C75 169.803 78.5252 173.311 82.8737 173.311H100.126C104.475 173.311 108 169.803 108 165.476V137.362C108 133.035 111.525 129.527 115.874 129.527H144.126C148.475 129.527 152 126.019 152 121.692V93.5778C152 89.2506 155.525 85.7427 159.874 85.7427H188.126C192.475 85.7427 196 82.2348 196 77.9076V49.7935C196 45.4663 199.525 41.9584 203.874 41.9584H243.126C247.475 41.9584 251 45.4663 251 49.7935V88.8537C251 93.1809 247.475 96.6888 243.126 96.6888H214.874C210.525 96.6888 207 100.197 207 104.524V132.638C207 136.965 203.475 140.473 199.126 140.473H170.874C166.525 140.473 163 143.981 163 148.308V176.422C163 180.749 159.475 184.257 155.126 184.257H126.874C122.525 184.257 119 187.765 119 192.092V220.207C119 224.534 115.475 228.042 111.126 228.042H71.8737C67.5252 228.042 64 224.534 64 220.207V192.092C64 187.765 60.4748 184.257 56.1263 184.257H27.8737C23.5252 184.257 20 180.749 20 176.422V137.362ZM69.5001 178.784V214.734C69.5001 219.061 73.0252 222.569 77.3738 222.569H105.626C109.975 222.569 113.5 219.061 113.5 214.734V178.784H149.626C153.975 178.784 157.5 175.276 157.5 170.949V135H193.626C197.975 135 201.5 131.492 201.5 127.165V91.2157H237.626C241.975 91.2157 245.5 87.7078 245.5 83.3806V55.2665C245.5 50.9393 241.975 47.4314 237.626 47.4314H209.374C205.025 47.4314 201.5 50.9393 201.5 55.2665V91.2157H165.374C161.025 91.2157 157.5 94.7236 157.5 99.0508V135H121.374C117.025 135 113.5 138.508 113.5 142.835V178.784H69.5001V142.835C69.5001 138.508 65.9749 135 61.6264 135H33.3738C29.0253 135 25.5001 138.508 25.5001 142.835V170.949C25.5001 175.276 29.0252 178.784 33.3738 178.784H69.5001Z" fill="#3B7BF5"/>
<path fill-rule="evenodd" clip-rule="evenodd" d="M59.8751 185.201C58.7605 184.599 57.4835 184.257 56.1263 184.257H27.8737C23.5252 184.257 20 180.749 20 176.422V137.362C20 133.035 23.5252 129.527 27.8737 129.527H67.1263C71.4748 129.527 75 133.035 75 137.362V165.476C75 166.808 75.3337 168.061 75.9224 169.159C76.65 170.516 77.7671 171.635 79.1251 172.368C80.2397 172.97 81.5166 173.311 82.8737 173.311H100.126C101.483 173.311 102.76 172.97 103.875 172.368C105.233 171.635 106.35 170.516 107.078 169.159C107.666 168.061 108 166.808 108 165.476V137.362C108 133.035 111.525 129.527 115.874 129.527H144.126C145.483 129.527 146.76 129.185 147.875 128.584C149.233 127.851 150.35 126.732 151.078 125.375C151.666 124.277 152 123.023 152 121.692V93.5778C152 89.2506 155.525 85.7427 159.874 85.7427H188.126C189.483 85.7427 190.76 85.401 191.875 84.7994C193.233 84.0664 194.35 82.9476 195.078 81.5907C195.666 80.4928 196 79.239 196 77.9076V49.7935C196 45.4663 199.525 41.9584 203.874 41.9584H243.126C247.475 41.9584 251 45.4663 251 49.7935V88.8537C251 93.1809 247.475 96.6888 243.126 96.6888H214.874C213.517 96.6888 212.24 97.0304 211.125 97.632C209.767 98.365 208.65 99.4838 207.922 100.841C207.334 101.939 207 103.192 207 104.524V132.638C207 136.965 203.475 140.473 199.126 140.473H170.874C169.517 140.473 168.24 140.815 167.125 141.416C165.767 142.149 164.65 143.268 163.922 144.625C163.334 145.723 163 146.977 163 148.308V176.422C163 180.749 159.475 184.257 155.126 184.257H126.874C125.517 184.257 124.24 184.599 123.125 185.201C121.767 185.934 120.65 187.052 119.922 188.409C119.334 189.507 119 190.761 119 192.092V220.207C119 224.534 115.475 228.042 111.126 228.042H71.8737C67.5252 228.042 64 224.534 64 220.207V192.092C64 190.761 63.6663 189.507 63.0776 188.409C62.35 187.052 61.233 185.934 59.8751 185.201ZM91.5 125.458C95.9258 116.439 105.219 110.277 115.874 110.277H132.75V93.5778C132.75 78.5301 144.983 66.4927 159.874 66.4927H176.75V49.7935C176.75 34.7457 188.983 22.7084 203.874 22.7084H243.126C258.017 22.7084 270.25 34.7457 270.25 49.7935V88.8537C270.25 103.901 258.017 115.939 243.126 115.939H226.25V132.638C226.25 147.686 214.017 159.723 199.126 159.723H182.25V176.422C182.25 191.47 170.017 203.507 155.126 203.507H138.25V220.207C138.25 235.254 126.017 247.292 111.126 247.292H71.8737C56.983 247.292 44.75 235.254 44.75 220.207V203.507H27.8737C12.983 203.507 0.75 191.47 0.75 176.422V137.362C0.75 122.314 12.983 110.277 27.8737 110.277H67.1263C77.7805 110.277 87.0742 116.439 91.5 125.458Z" fill="white"/>
</g>
<defs>
<clipPath id="clip0_121_302">
<rect width="270" height="270" fill="white"/>
</clipPath>
</defs>
</svg>
